<?xml version="1.0" ?><!DOCTYPE svg  PUBLIC '-//W3C//DTD SVG 1.1//EN'  'http://www.w3.org/Graphics/SVG/1.1/DTD/svg11.dtd'><svg height="1.70667in" style="shape-rendering:geometricPrecision; text-rendering:geometricPrecision; image-rendering:optimizeQuality; fill-rule:evenodd; clip-rule:evenodd" version="1.1" viewBox="0 0 8379 8379" width="1.70667in" xml:space="preserve" xmlns="http://www.w3.org/2000/svg" xmlns:xlink="http://www.w3.org/1999/xlink"><defs><style type="text/css">
   <![CDATA[
    .fil0 {fill:none}
    .fil1 {fill:black;fill-rule:nonzero}
   ]]>
  </style></defs><g id="Layer_x0020_1"><rect class="fil0" height="8379" width="8379"/><g id="_847456168"><g><path class="fil1" d="M1610 4410c-2,-13 -12,-22 -24,-22 -11,0 -21,9 -23,22l-54 499 54 487c2,14 12,23 23,23 12,0 22,-9 23,-22l63 -488 -62 -499z"/><path class="fil1" d="M2470 3950c-23,0 -41,19 -42,42l-44 917 44 593c1,23 19,42 42,42 22,0 40,-19 42,-42l0 0 49 -593 -49 -917c-2,-23 -20,-42 -42,-42z"/><path class="fil1" d="M2024 4269c-17,0 -31,14 -32,32l-49 608 49 588c1,18 15,32 32,32 17,0 31,-14 33,-32l56 -588 -56 -608c-2,-18 -16,-32 -33,-32z"/><path class="fil1" d="M2922 5544c28,0 50,-23 51,-52l43 -582 -43 -1222c-1,-28 -23,-51 -51,-51 -28,0 -51,23 -52,51l-37 1222 37 583c1,28 24,51 52,51z"/><path class="fil1" d="M3848 5546c38,0 70,-31 70,-70l0 1 0 -1 30 -566 -30 -1410c0,-39 -32,-71 -70,-71 -38,0 -70,32 -71,71l-26 1410c0,0 26,566 26,566 1,39 33,70 71,70z"/><path class="fil1" d="M3381 5544c34,0 60,-27 61,-61l0 1 37 -574 -37 -1230c-1,-34 -27,-61 -61,-61 -33,0 -60,27 -61,61l-32 1230 32 574c1,33 28,60 61,60z"/></g><path class="fil1" d="M6187 4182c-93,0 -183,19 -264,53 -54,-615 -570,-1098 -1200,-1098 -154,0 -304,30 -437,81 -51,20 -65,41 -65,81l0 2167c0,42 33,77 73,81 2,0 1881,1 1893,1 377,0 683,-306 683,-683 0,-377 -306,-683 -683,-683z"/></g></g></svg>