<?xml version="1.0" ?><!DOCTYPE svg  PUBLIC '-//W3C//DTD SVG 1.1//EN'  'http://www.w3.org/Graphics/SVG/1.1/DTD/svg11.dtd'><svg height="1.70667in" style="shape-rendering:geometricPrecision; text-rendering:geometricPrecision; image-rendering:optimizeQuality; fill-rule:evenodd; clip-rule:evenodd" version="1.1" viewBox="0 0 8379 8379" width="1.70667in" xml:space="preserve" xmlns="http://www.w3.org/2000/svg" xmlns:xlink="http://www.w3.org/1999/xlink"><defs><style type="text/css">
   <![CDATA[
    .fil0 {fill:none}
    .fil1 {fill:black;fill-rule:nonzero}
   ]]>
  </style></defs><g id="Layer_x0020_1"><rect class="fil0" height="8379" width="8379"/><path class="fil1" d="M5680 3910c-52,72 -176,104 -269,52 -663,-393 -1770,-435 -2401,-238 -104,31 -207,-31 -238,-125 -32,-103 31,-207 124,-238 735,-217 1946,-176 2712,280 93,52 124,176 72,269zm-290 631c-52,73 -145,104 -217,52 -559,-342 -1408,-445 -2060,-238 -83,21 -176,-21 -196,-104 -21,-82 20,-175 103,-196 755,-228 1687,-114 2329,279 62,31 93,135 41,207zm-248 570c-41,62 -114,83 -176,41 -487,-300 -1097,-362 -1822,-197 -72,21 -134,-31 -155,-93 -21,-72 31,-134 93,-155 787,-176 1470,-104 2008,228 73,31 83,114 52,176zm-953 -2992c-1138,0 -2070,932 -2070,2070 0,1139 932,2071 2070,2071 1139,0 2070,-932 2070,-2071 0,-1138 -921,-2070 -2070,-2070z"/></g></svg>