<svg xmlns="http://www.w3.org/2000/svg" enable-background="new 0 0 100 100" viewBox="0 0 100 100" id="tiktok"><g><linearGradient id="a" x1="29.66" x2="69.487" y1="15.493" y2="84.475" gradientUnits="userSpaceOnUse"><stop offset="0" stop-color="#69c9d0"></stop><stop offset="1" stop-color="#ee1d52"></stop></linearGradient><path fill="url(#a)" d="M92.431,27.006c0,0,0,15.987,0,15.987c0.018,0.838-0.769,1.551-1.602,1.449
		C86.424,44,82.01,43.935,77.623,42.984c-2.886-0.623-5.598-1.946-8.368-3.17c-0.055,5.146,0.222,19.038,0.158,26.276
		c-0.874,39.386-56.485,43.194-61.71,3.09C6.138,53.201,18.416,38.079,34.515,36.159c1.893-0.198,2.255,2.629,0.345,2.892
		C20.296,40.789,9.188,54.456,10.602,68.896c4.733,36.4,55.108,32.936,55.899-2.773c0.066-6.602-0.282-27.339-0.122-28.612
		c0.57-2.788,3.758-0.3,5.259,0.176c5.696,2.992,11.653,3.283,17.88,3.711c0,0,0-12.871,0-12.872
		C74.75,29.072,66.828,17.841,66.232,5.413h-12.22c0.002,19.095,0.017,35.687-0.036,55.853c-0.042,1.924-2.884,1.897-2.913-0.008
		c0.052-20.586,0.043-37.74,0.036-57.302c0-0.805,0.652-1.456,1.456-1.456H67.58c0.767,0,1.402,0.595,1.454,1.359
		c0.598,8.952,2.975,14.372,7.948,18.125c3.673,2.772,8.227,3.939,13.898,3.569C91.702,25.484,92.445,26.188,92.431,27.006z
		 M22.926,66.753c0.262,17.034,23.632,21.77,30.106,5.724c0.288-0.751-0.088-1.593-0.839-1.88c-0.752-0.289-1.593,0.087-1.881,0.839
		c-5.238,13.011-24.256,9.18-24.473-4.691c-0.017-6.267,4.321-11.536,10.315-12.53c2.166-0.353,4.702-0.03,7.012-0.041
		c0.805,0,1.456-0.652,1.456-1.456v-15.16c-0.029-1.9-2.879-1.926-2.913,0c0,0,0,13.674,0,13.674
		C31.851,49.856,22.964,56.295,22.926,66.753z"></path></g></svg>