<?xml version="1.0" encoding="UTF-8" standalone="no"?>
<!DOCTYPE svg PUBLIC "-//W3C//DTD SVG 1.1//EN"
"http://www.w3.org/Graphics/SVG/1.1/DTD/svg11.dtd">


<!-- Page 1 -->
<svg x="0" y="0" width="660" height="660" viewBox="0 0 660 660" version="1.1" xmlns="http://www.w3.org/2000/svg" xmlns:xlink="http://www.w3.org/1999/xlink"
style="display: block;margin-left: auto;margin-right: auto;">
<defs>

<style type="text/css"><![CDATA[

.g0_1{
fill: #231F20;
}
.g1_1{
fill: #4BC2C4;
}
.g2_1{
fill: #F79837;
}
.g3_1{
fill: #F37D60;
}
.g4_1{
fill: #1C9CC8;
}

]]></style>

</defs>
<path d="M0,0
L0,660
L660,660
L660,0 Z " 
fill="#FFFFFF" stroke="none" />
<path d="M72.2,212.1H592.9c-.5,-1,-1.1,-1.9,-1.6,-2.8H73.8c-.5,.9,-1,1.8,-1.6,2.8Z" class="g0_1" />
<path d="M42.3,288.3H622.8c-.3,-.9,-.5,-1.8,-.7,-2.8H43c-.2,1,-.4,1.9,-.7,2.8Z" class="g0_1" />
<path d="M136.6,133c-1.1,.9,-2.2,1.9,-3.2,2.8H531.7c-1,-.9,-2.1,-1.9,-3.2,-2.8Z" class="g0_1" />
<path d="M43,285.5c6.5,-26,16.4,-50.6,29.2,-73.4Z" class="g1_1" />
<path d="M592.9,212.1c12.8,22.8,22.7,47.4,29.2,73.4Z" class="g1_1" />
<path d="M43,285.5H622.1c-6.5,-26,-16.4,-50.6,-29.2,-73.4H72.2C59.4,234.9,49.5,259.5,43,285.5Z" class="g1_1" />
<path d="M136.6,133C189,87.3,257.5,59.6,332.6,59.6c75,0,143.5,27.7,195.9,73.4Z" class="g2_1" />
<path d="M332.6,59.6C257.5,59.6,189,87.3,136.6,133H528.5C476.1,87.3,407.6,59.6,332.6,59.6Z" class="g2_1" />
<path d="M531.7,135.8c23.6,21.1,43.7,45.9,59.6,73.5Z" class="g3_1" />
<path d="M73.8,209.3c15.9,-27.6,36.1,-52.4,59.6,-73.5Z" class="g3_1" />
<path d="M73.8,209.3H591.3c-15.9,-27.6,-36,-52.4,-59.6,-73.5H133.4c-23.5,21.1,-43.7,45.9,-59.6,73.5Z" class="g3_1" />
<path d="M622.8,288.3c5.3,22.4,8.2,45.7,8.2,69.7c0,.4,0,.7,0,1H34.1c0,-.3,0,-.6,0,-1c0,-24,2.9,-47.3,8.2,-69.7Z" class="g4_1" />
<path d="M34.1,358c0,.4,0,.7,0,1H631c0,-.3,0,-.6,0,-1c0,-24,-2.9,-47.3,-8.2,-69.7H42.3C37,310.7,34.1,334,34.1,358Z" class="g4_1" />
<path d="M559.9,551.7c.1,.6,.1,1.3,.2,2.1h2c-.4,-.8,-.8,-1.5,-1.1,-2.1Z" class="g0_1" />
<path d="M559.6,549.5c0,0,.1,.8,.3,2.2H561c-.7,-1.4,-1.1,-2.2,-1.1,-2.2Z" class="g1_1" />
<path d="M52.1,438.7H82.2v-2.2H52.1v2.2Z" class="g0_1" />
<path d="M120.8,438.7h30v-2.2h-30v2.2Z" class="g0_1" />
<path d="M244.2,438.7c-.4,-.8,-.8,-1.5,-1.3,-2.2H211.7c.4,.7,.7,1.4,1.1,2.2Z" class="g0_1" />
<path d="M279.8,438.7v-2.2H249.9c0,.7,0,1.4,.1,2.2Z" class="g0_1" />
<path d="M209.8,438.7c0,-.8,-.1,-1.5,-.2,-2.2H180.4v2.2Z" class="g0_1" />
<path d="M311.6,438.7h30.1v-2.2H311.6v2.2Z" class="g0_1" />
<path d="M412,438.7c0,-.8,-.1,-1.5,-.1,-2.2H380.6c0,.7,.1,1.4,.1,2.2Z" class="g0_1" />
<path d="M432.2,438.7h64.3v-2.2H432.2v2.2Z" class="g0_1" />
<path d="M612.3,438.7c.4,-.7,.8,-1.4,1.2,-2.2h-81v2.2Z" class="g0_1" />
<path d="M69.9,381.4H41.2v25.2h7.2c2.3,0,3.7,1.3,3.7,3.7v26.2H82.2V393.6c0,-1.4,-.2,-2.7,-.4,-3.8c-1,-5.9,-4.8,-8.4,-11.9,-8.4Z" class="g1_1" />
<path d="M121.6,387.9c-.6,1.6,-.8,3.5,-.8,5.7v42.9h30V410.3c0,-2.4,1.4,-3.7,3.7,-3.7h7.3V381.4H133c-6.3,0,-10,2,-11.4,6.5Z" class="g1_1" />
<path d="M253.8,383.4c-2.8,1.9,-4,5.2,-4,10.2v39.3c0,1.2,0,2.4,.1,3.6h29.9V410.3c0,-2.4,1.4,-3.7,3.7,-3.7h7.3V381.4H262c-3.5,0,-6.2,.6,-8.2,2Z" class="g1_1" />
<path d="M209.6,384.6l-2.1,-3.2H180.4v55.1h29.2c-.2,-2.6,-.5,-4.4,-.5,-4.4h.4c0,0,.8,1.8,2.2,4.4h31.2c-.7,-1.2,-1.4,-2.4,-2.2,-3.6Z" class="g1_1" />
<path d="M355.8,381.6c-1.9,-.2,-3.8,-.2,-5.7,-.2H300.7v25.2h10.9v29.9h30.1V406.6h7.2c17.9,0,30.1,10.1,31.7,29.9h31.3c-1.8,-33,-23.1,-52.9,-56.1,-54.9Z" class="g1_1" />
<path d="M496.9,381.4H421.3v25.2h10.9v29.9h64.3v-8.1H462.3V406.6h16.2c2.4,0,3.7,1.3,3.7,3.7v6.5h26.9V393.6c0,-8.5,-3.7,-12.2,-12.2,-12.2Z" class="g1_1" />
<path d="M572.9,435.8H562.5V406.6h10.9c8.4,0,13.1,4.8,13.1,14.4c0,9.6,-4.7,14.8,-13.6,14.8m16.2,-53.2c-3.6,-.8,-7.4,-1.2,-11.5,-1.2H521.5v25.2h11v29.9h81c2.2,-4.4,3.8,-10.1,3.8,-17.3c0,-20,-11.2,-32.8,-28.2,-36.6Z" class="g1_1" />
<path d="M120.8,456.4c0,12.6,-7.9,19.4,-19.3,19.4C90,475.8,82.2,469,82.2,456.4V438.7H52.1v18.6c0,15.6,6.5,28.6,17.8,36.8c1.1,.8,2.2,1.5,3.3,2.1c7.7,4.7,17.4,7.3,28.4,7.3c11,0,20.5,-2.6,28.2,-7.3c1.2,-.6,2.2,-1.3,3.3,-2.1c11.2,-8.2,17.8,-21.2,17.8,-36.8V438.7H120.8Z" class="g4_1" />
<path d="M180.4,438.7v33.9c0,2.3,-1.3,3.7,-3.7,3.7h-7.2v25.2h28.7c5.7,0,9.2,-1.7,11,-5.3c.3,-.6,.5,-1.3,.7,-2.1c.4,-1.4,.6,-3,.6,-4.9V450.1c0,-3.7,-.3,-8,-.7,-11.4Z" class="g4_1" />
<path d="M251.1,450.9h-.3c0,0,-3,-6,-6.6,-12.2H212.8c1.9,3.4,4.3,7.7,6.7,11.4l28.7,44l1.4,2.1l3.4,5.3h26.8V438.7H250c.3,6.2,1.1,12.2,1.1,12.2Z" class="g4_1" />
<path d="M380.7,438.7c0,.8,.1,1.6,.1,2.5c0,23,-12.1,35.1,-31.9,35.1h-3.5c-2.4,0,-3.7,-1.4,-3.7,-3.7V438.7H311.6v50.5c0,1.9,.2,3.5,.5,4.9c.2,.8,.5,1.5,.8,2.1c1.8,3.6,5.3,5.3,11,5.3h26.2c10.6,0,20.2,-1.8,28.5,-5.3c1.5,-.6,3,-1.3,4.5,-2.1C401.4,484.6,412,466.3,412,441.2c0,-.9,0,-1.7,0,-2.5Z" class="g4_1" />
<path d="M486.3,472.6c0,2.3,-1.4,3.7,-3.7,3.7H465.9c-2.3,0,-3.6,-1.4,-3.6,-3.7v-19h34.2V438.7H432.2v50.5c0,1.9,.2,3.5,.5,4.9c.2,.8,.5,1.5,.8,2.1c1.7,3.6,5.3,5.3,10.9,5.3h56.5c5.7,0,9.2,-1.7,10.9,-5.3c.3,-.6,.6,-1.3,.8,-2.1c.4,-1.4,.5,-3,.5,-4.9V466H486.3Z" class="g4_1" />
<path d="M622.8,476.3c-3.3,0,-6.4,-.4,-8.2,-3.9L607,458c-2.7,-5.3,-7.4,-7.3,-7.4,-7.3v-.3c0,0,7.5,-3,12.7,-11.7H532.5v62.8h30V461h4.1c6.2,0,8.7,.8,10.7,4.5l14.1,27.1c.3,.5,.6,1,.9,1.5c.5,.8,1,1.5,1.5,2.1c3.5,4.3,7.8,5.3,14.6,5.3h16.4V476.3Z" class="g4_1" />
<path d="M71.2,553.8H95.1v-2.1H71.2v2.1Z" class="g0_1" />
<path d="M95.1,529.2h7.7c1.9,0,3,1,3,2.9v5.2h20.6V518.4c0,-6.8,-2.4,-9.2,-9.2,-9.2H49c-6.8,0,-9.2,2.4,-9.2,9.2v18.9H60.5v-5.2c0,-1.9,1.1,-2.9,2.9,-2.9h7.8v22.5H95.1Z" class="g2_1" />
<path d="M71.2,604.6H95.1V553.8H71.2v50.8Z" class="g3_1" />
<path d="M140.9,553.8H221v-2.1H140.9v2.1Z" class="g0_1" />
<path d="M221,532.1c0,-1.9,1,-2.9,2.9,-2.9h5.7v-20H206.8c-6.8,0,-9.7,2.9,-9.7,9.7v28.4H164.8V518.9c0,-6.8,-3,-9.7,-9.8,-9.7H132.2v20h5.7c1.9,0,3,1,3,2.9v19.6H221Z" class="g2_1" />
<path d="M140.9,604.6h23.9V567.2h32.3v37.4H221V553.8H140.9Z" class="g3_1" />
<path d="M245.8,553.8h51.1v-2.1H245.8v2.1Z" class="g0_1" />
<path d="M296.9,546.5H269.7V529.2h12.9c1.9,0,3,1,3,2.9v5.2h21.3V518.9c0,-6.8,-2.9,-9.7,-9.7,-9.7H237.1v20h8.7v22.5h51.1Z" class="g2_1" />
<path d="M245.8,594.9c0,6.8,2.9,9.7,9.7,9.7h44.9c6.8,0,9.7,-2.9,9.7,-9.7V576.4H288.8v5.2c0,1.9,-1.1,3,-3,3H272.6c-1.8,0,-2.9,-1.1,-2.9,-3v-15h27.2V553.8H245.8Z" class="g3_1" />
<path d="M357.6,551.7c.5,.7,1.1,1.4,1.7,2.1h48.3c-1.1,-.7,-2.2,-1.4,-3.4,-2.1Z" class="g0_1" />
<path d="M376.6,535.3c0,-4.4,4.9,-6.4,9.8,-6.4c4.4,0,9.3,2.1,9.3,5.6v4.2h21.4V528.2c0,-14.5,-17.8,-20.6,-30.5,-20.6c-18.9,0,-34,11.4,-34,28.7c0,6.3,1.9,11.3,5,15.4h46.6c-12.3,-7.3,-27.6,-9.5,-27.6,-16.4Z" class="g2_1" />
<path d="M395.8,577.9c0,5.3,-4.8,7.1,-9.6,7.1c-12,0,-21.9,-11.2,-21.9,-11.2l-13.2,16.6c0,0,12.4,15.8,34.9,15.8c21.4,0,33.9,-13.6,33.9,-29.5c0,-11,-5.4,-18,-12.3,-22.9H359.3c12.1,13.5,36.5,16.2,36.5,24.1Z" class="g3_1" />
<path d="M489.8,553.8h23.9v-2.1H489.8v2.1Z" class="g0_1" />
<path d="M435.2,553.8h23.9v-2.1H435.2v2.1Z" class="g0_1" />
<path d="M459.1,518.9c0,-6.8,-2.9,-9.7,-9.7,-9.7H426.5v20h5.8c1.8,0,2.9,1,2.9,2.9v19.6h23.9Z" class="g2_1" />
<path d="M513.7,532.1c0,-1.9,1.1,-2.9,2.9,-2.9h5.8v-20H499.6c-6.9,0,-9.8,2.9,-9.8,9.7v32.8h23.9Z" class="g2_1" />
<path d="M489.8,568.8c0,10,-6.3,15.4,-15.3,15.4c-9.1,0,-15.4,-5.4,-15.4,-15.4v-15H435.2v15.7c0,21.5,15.5,36.7,39.4,36.7c23.6,0,39.1,-15.2,39.1,-36.7V553.8H489.8Z" class="g3_1" />
<path d="M536.8,551.7v2.1h23.3c-.1,-.8,-.1,-1.5,-.2,-2.1Z" class="g0_1" />
<path d="M592,551.7c0,.7,0,1.4,0,2.1h23.8v-2.1Z" class="g0_1" />
<path d="M585.7,551.7H561c.3,.6,.7,1.3,1.1,2.1H587c-.4,-.7,-.9,-1.4,-1.3,-2.1Z" class="g0_1" />
<path d="M559.6,549.5h.3c0,0,.4,.8,1.1,2.2h24.7c-.3,-.5,-.6,-1.1,-1,-1.6L558.3,509.2H536.8v42.5h23.1c-.2,-1.4,-.3,-2.2,-.3,-2.2Z" class="g2_1" />
<path d="M615.8,532.1c0,-1.9,1.1,-2.9,3,-2.9h5.7v-20H601.7c-6.8,0,-9.8,2.9,-9.8,9.7v31.2c0,.5,0,1.1,.1,1.6h23.8Z" class="g2_1" />
<path d="M593,564.4h-.3c0,0,-2.6,-5.3,-5.7,-10.6H562.1c1.5,2.9,3.7,6.8,5.8,9.9l26.6,40.9h21.3V553.8H592c.3,5.2,1,10.6,1,10.6Z" class="g3_1" />
<path d="M536.8,581.6c0,1.9,-1.1,3,-2.9,3h-5.8v20H551c6.8,0,9.7,-2.9,9.7,-9.7V563.8c0,-3.2,-.3,-7.1,-.6,-10H536.8Z" class="g3_1" />
<image preserveAspectRatio="none" x="218" y="237" width="18" height="53" xlink:href="1/img/1.png" />

</svg>
